<mxfile host="65bd71144e">
    <diagram id="T6wRg1R_UVVfDn9gkbCJ" name="ページ1">
        <mxGraphModel dx="933" dy="422" grid="1" gridSize="10" guides="1" tooltips="1" connect="1" arrows="1" fold="1" page="1" pageScale="1" pageWidth="827" pageHeight="1169" background="none" math="0" shadow="0">
            <root>
                <mxCell id="0"/>
                <mxCell id="1" parent="0"/>
                <mxCell id="17" value="" style="whiteSpace=wrap;html=1;fillColor=none;dashed=1;" parent="1" vertex="1">
                    <mxGeometry x="400" y="330" width="376" height="160" as="geometry"/>
                </mxCell>
                <mxCell id="19" value="" style="whiteSpace=wrap;html=1;fillColor=none;" parent="1" vertex="1">
                    <mxGeometry x="70" y="290" width="570" height="260" as="geometry"/>
                </mxCell>
                <mxCell id="21" style="edgeStyle=none;html=1;exitX=0.5;exitY=0;exitDx=0;exitDy=0;" parent="1" source="8" target="12" edge="1">
                    <mxGeometry relative="1" as="geometry"/>
                </mxCell>
                <mxCell id="12" value="Render.com" style="ellipse;shape=cloud;whiteSpace=wrap;html=1;" parent="1" vertex="1">
                    <mxGeometry x="105" y="100" width="190" height="110" as="geometry"/>
                </mxCell>
                <mxCell id="13" value="Postgres" style="shape=cylinder3;whiteSpace=wrap;html=1;boundedLbl=1;backgroundOutline=1;size=15;" parent="1" vertex="1">
                    <mxGeometry x="700" y="380" width="60" height="80" as="geometry"/>
                </mxCell>
                <mxCell id="14" value="api (Nestjs)" style="swimlane;whiteSpace=wrap;html=1;" parent="1" vertex="1">
                    <mxGeometry x="426" y="350" width="180" height="120" as="geometry">
                        <mxRectangle x="120" y="240" width="120" height="30" as="alternateBounds"/>
                    </mxGeometry>
                </mxCell>
                <mxCell id="27" value="&lt;p style=&quot;line-height: 100%;&quot;&gt;&lt;/p&gt;&lt;ul&gt;&lt;li&gt;Graphql&lt;/li&gt;&lt;li&gt;Applo Server&lt;/li&gt;&lt;li&gt;Prisma&lt;/li&gt;&lt;/ul&gt;&lt;p&gt;&lt;/p&gt;" style="text;html=1;align=left;verticalAlign=middle;resizable=0;points=[];autosize=1;strokeColor=none;fillColor=none;spacing=2;spacingTop=0;" vertex="1" parent="14">
                    <mxGeometry x="-12" y="13" width="130" height="100" as="geometry"/>
                </mxCell>
                <mxCell id="15" value="" style="endArrow=classic;startArrow=classic;html=1;entryX=0;entryY=0.5;entryDx=0;entryDy=0;entryPerimeter=0;" parent="1" target="13" edge="1">
                    <mxGeometry width="50" height="50" relative="1" as="geometry">
                        <mxPoint x="606" y="420" as="sourcePoint"/>
                        <mxPoint x="716" y="480" as="targetPoint"/>
                    </mxGeometry>
                </mxCell>
                <mxCell id="22" style="edgeStyle=none;html=1;exitX=0.5;exitY=0;exitDx=0;exitDy=0;entryX=0.519;entryY=0.938;entryDx=0;entryDy=0;entryPerimeter=0;" parent="1" source="17" target="18" edge="1">
                    <mxGeometry relative="1" as="geometry"/>
                </mxCell>
                <mxCell id="18" value="Railway" style="ellipse;shape=cloud;whiteSpace=wrap;html=1;" parent="1" vertex="1">
                    <mxGeometry x="489" y="100" width="190" height="110" as="geometry"/>
                </mxCell>
                <mxCell id="23" value="NX" style="text;html=1;strokeColor=none;fillColor=none;align=center;verticalAlign=middle;whiteSpace=wrap;rounded=0;dashed=1;labelBackgroundColor=default;spacingLeft=0;" parent="1" vertex="1">
                    <mxGeometry x="80" y="278" width="60" height="30" as="geometry"/>
                </mxCell>
                <mxCell id="24" value="&lt;span style=&quot;&quot;&gt;Prisma&lt;/span&gt;&lt;br&gt;&lt;span style=&quot;&quot;&gt;Docker&lt;/span&gt;" style="text;html=1;strokeColor=none;fillColor=none;align=center;verticalAlign=middle;whiteSpace=wrap;rounded=0;dashed=1;spacing=0;labelPosition=center;verticalLabelPosition=middle;labelBackgroundColor=default;" parent="1" vertex="1">
                    <mxGeometry x="620" y="430" width="66" height="40" as="geometry"/>
                </mxCell>
                <mxCell id="8" value="web (Next.js 13)" style="swimlane;whiteSpace=wrap;html=1;" parent="1" vertex="1">
                    <mxGeometry x="110" y="350" width="180" height="120" as="geometry">
                        <mxRectangle x="120" y="240" width="120" height="30" as="alternateBounds"/>
                    </mxGeometry>
                </mxCell>
                <mxCell id="26" value="&lt;p style=&quot;line-height: 100%;&quot;&gt;&lt;/p&gt;&lt;ul&gt;&lt;li&gt;TailwindCSS&lt;/li&gt;&lt;li&gt;i18n&lt;/li&gt;&lt;li&gt;contentlayer&lt;/li&gt;&lt;/ul&gt;&lt;p&gt;&lt;/p&gt;" style="text;html=1;align=left;verticalAlign=middle;resizable=0;points=[];autosize=1;strokeColor=none;fillColor=none;spacing=2;spacingTop=0;" vertex="1" parent="8">
                    <mxGeometry x="-13" y="15" width="130" height="100" as="geometry"/>
                </mxCell>
            </root>
        </mxGraphModel>
    </diagram>
</mxfile>